<?xml version="1.0" encoding="UTF-8"?>
<svg xmlns="http://www.w3.org/2000/svg" xmlns:xlink="http://www.w3.org/1999/xlink" width="120px" height="120px" viewBox="0 0 120 120" version="1.1">
<g id="surface1">
<path style=" stroke:none;fill-rule:nonzero;fill:rgb(99.607843%,99.607843%,99.607843%);fill-opacity:1;" d="M 0 0 C 39.601562 0 79.199219 0 120 0 C 120 39.601562 120 79.199219 120 120 C 80.398438 120 40.800781 120 0 120 C 0 80.398438 0 40.800781 0 0 Z M 0 0 "/>
<path style=" stroke:none;fill-rule:nonzero;fill:rgb(99.215686%,40.784314%,47.843137%);fill-opacity:1;" d="M 18.351562 40.390625 C 18.804688 40.390625 19.253906 40.390625 19.707031 40.386719 C 20.652344 40.382812 21.59375 40.386719 22.539062 40.390625 C 23.742188 40.394531 24.945312 40.390625 26.148438 40.378906 C 27.078125 40.375 28.011719 40.375 28.945312 40.375 C 29.386719 40.378906 29.832031 40.375 30.273438 40.371094 C 33.15625 40.347656 35.53125 40.503906 37.789062 42.527344 C 39.894531 44.636719 40.203125 46.945312 40.21875 49.796875 C 40.21875 50.214844 40.21875 50.632812 40.214844 51.050781 C 40.21875 51.488281 40.21875 51.921875 40.21875 52.359375 C 40.222656 53.269531 40.222656 54.183594 40.21875 55.09375 C 40.214844 56.253906 40.21875 57.414062 40.226562 58.574219 C 40.234375 59.476562 40.234375 60.375 40.230469 61.277344 C 40.230469 61.703125 40.234375 62.132812 40.234375 62.558594 C 40.273438 67.84375 40.273438 67.84375 38.480469 69.796875 C 38.375 69.890625 38.269531 69.984375 38.160156 70.078125 C 38.375 70.089844 38.59375 70.097656 38.816406 70.105469 C 39.101562 70.121094 39.382812 70.140625 39.675781 70.15625 C 39.957031 70.167969 40.238281 70.183594 40.527344 70.195312 C 41.28125 70.320312 41.28125 70.320312 41.742188 70.652344 C 42 71.039062 42 71.039062 41.96875 71.65625 C 41.761719 72.238281 41.761719 72.238281 41.039062 72.71875 C 40.414062 72.78125 40.414062 72.78125 39.644531 72.78125 C 39.355469 72.78125 39.0625 72.785156 38.761719 72.785156 C 38.441406 72.785156 38.117188 72.78125 37.792969 72.78125 C 37.453125 72.78125 37.113281 72.785156 36.773438 72.785156 C 35.851562 72.785156 34.925781 72.785156 34.003906 72.785156 C 33.039062 72.785156 32.074219 72.785156 31.109375 72.785156 C 29.488281 72.785156 27.867188 72.785156 26.246094 72.78125 C 24.371094 72.78125 22.496094 72.78125 20.621094 72.785156 C 19.011719 72.785156 17.402344 72.785156 15.792969 72.785156 C 14.832031 72.785156 13.871094 72.785156 12.910156 72.785156 C 12.003906 72.785156 11.101562 72.785156 10.199219 72.78125 C 9.867188 72.78125 9.535156 72.78125 9.203125 72.785156 C 8.75 72.785156 8.296875 72.78125 7.84375 72.78125 C 7.464844 72.78125 7.464844 72.78125 7.078125 72.78125 C 6.480469 72.71875 6.480469 72.71875 6 72.238281 C 5.941406 71.640625 5.941406 71.640625 6 71.039062 C 6.683594 70.355469 7.394531 70.449219 8.308594 70.410156 C 8.480469 70.402344 8.648438 70.390625 8.824219 70.382812 C 9.242188 70.359375 9.660156 70.339844 10.078125 70.320312 C 9.902344 70.132812 9.722656 69.945312 9.539062 69.75 C 7.644531 67.40625 7.769531 64.796875 7.777344 61.9375 C 7.773438 61.496094 7.773438 61.054688 7.769531 60.613281 C 7.765625 59.6875 7.765625 58.765625 7.769531 57.84375 C 7.769531 56.667969 7.761719 55.492188 7.753906 54.316406 C 7.746094 53.40625 7.746094 52.496094 7.746094 51.582031 C 7.746094 51.152344 7.742188 50.71875 7.738281 50.285156 C 7.707031 47.25 8.019531 44.867188 10.125 42.496094 C 12.570312 40.332031 15.273438 40.378906 18.351562 40.390625 Z M 18.351562 40.390625 "/>
<path style=" stroke:none;fill-rule:nonzero;fill:rgb(99.607843%,42.352942%,49.019608%);fill-opacity:1;" d="M 99.121094 46.800781 C 99.199219 46.878906 99.277344 46.957031 99.359375 47.039062 C 99.34375 48.921875 99.015625 50.832031 98.773438 52.695312 C 98.730469 53.039062 98.730469 53.039062 98.6875 53.390625 C 98.503906 54.765625 98.28125 56.121094 98.011719 57.480469 C 97.917969 58.089844 97.902344 58.664062 97.921875 59.28125 C 98.632812 59.160156 98.632812 59.160156 99.359375 59.039062 C 99.367188 58.871094 99.378906 58.699219 99.386719 58.527344 C 99.511719 56.59375 99.765625 54.707031 100.074219 52.796875 C 100.339844 51.246094 100.339844 51.246094 100.320312 49.679688 C 100.082031 49.523438 99.84375 49.363281 99.601562 49.199219 C 99.628906 48.644531 99.628906 48.644531 99.839844 48 C 100.484375 47.59375 100.484375 47.59375 101.28125 47.28125 C 101.507812 47.1875 101.734375 47.09375 101.96875 46.996094 C 102.898438 46.753906 103.683594 46.765625 104.640625 46.800781 C 104.710938 48.652344 104.496094 50.390625 104.191406 52.214844 C 103.796875 54.644531 103.460938 57.070312 103.199219 59.519531 C 103.34375 59.441406 103.488281 59.363281 103.636719 59.28125 C 104.160156 59.039062 104.160156 59.039062 104.878906 59.039062 C 104.824219 60.507812 104.824219 60.507812 104.320312 61.089844 C 103.160156 62.054688 102.390625 62.265625 100.917969 62.265625 C 100.21875 62.140625 100.011719 61.980469 99.570312 61.441406 C 99.347656 61.082031 99.347656 61.082031 99.121094 60.71875 C 98.890625 60.914062 98.664062 61.105469 98.429688 61.304688 C 97.484375 62.109375 96.835938 62.253906 95.601562 62.25 C 94.671875 62.101562 94.246094 61.621094 93.601562 60.960938 C 93.429688 61.089844 93.429688 61.089844 93.257812 61.222656 C 92.175781 61.980469 91.355469 62.34375 90.023438 62.261719 C 88.945312 62.042969 88.292969 61.40625 87.523438 60.660156 C 86.984375 59.777344 86.949219 59.105469 86.878906 58.078125 C 86.703125 58.511719 86.703125 58.511719 86.519531 58.949219 C 85.734375 60.515625 84.285156 61.5 82.640625 62.046875 C 81.144531 62.347656 79.597656 62.355469 78.136719 61.90625 C 76.914062 60.984375 76.125 60 75.601562 58.558594 C 75.511719 58.699219 75.425781 58.839844 75.332031 58.980469 C 74.195312 60.621094 72.957031 61.5625 71.039062 62.160156 C 69.136719 62.425781 67.335938 62.390625 65.761719 61.199219 C 65.320312 60.820312 64.945312 60.4375 64.558594 60 C 64.503906 60.136719 64.449219 60.277344 64.394531 60.421875 C 63.921875 61.234375 63.238281 61.742188 62.398438 62.160156 C 61.914062 62.21875 61.914062 62.21875 61.351562 62.234375 C 61.164062 62.242188 60.980469 62.253906 60.789062 62.261719 C 60.007812 62.117188 59.746094 61.835938 59.28125 61.199219 C 58.871094 58.824219 59.492188 56.320312 60 54 C 58.976562 54.253906 58.976562 54.253906 58.191406 54.910156 C 57.390625 56.585938 56.976562 58.296875 56.589844 60.105469 C 56.398438 60.960938 56.398438 60.960938 56.160156 61.441406 C 55.121094 61.992188 53.964844 62.128906 52.800781 62.160156 C 52.558594 61.921875 52.558594 61.921875 52.523438 61.164062 C 52.558594 60.269531 52.695312 59.503906 52.90625 58.636719 C 53.257812 57.089844 53.4375 55.582031 53.519531 54 C 52.855469 54.210938 52.417969 54.359375 51.972656 54.910156 C 51.148438 56.585938 50.738281 58.289062 50.351562 60.105469 C 50.160156 60.960938 50.160156 60.960938 49.921875 61.441406 C 48.882812 61.992188 47.722656 62.128906 46.558594 62.160156 C 46.320312 61.921875 46.320312 61.921875 46.28125 61.082031 C 46.296875 59.96875 46.476562 58.902344 46.679688 57.808594 C 46.902344 56.605469 47.085938 55.472656 47.039062 54.238281 C 46.882812 54.160156 46.722656 54.082031 46.558594 54 C 46.558594 53.605469 46.558594 53.207031 46.558594 52.800781 C 49.144531 51.390625 49.144531 51.390625 50.640625 51.359375 C 51.152344 51.875 51.222656 52.113281 51.359375 52.800781 C 51.59375 52.605469 51.824219 52.414062 52.066406 52.214844 C 53.066406 51.503906 53.976562 51.285156 55.199219 51.359375 C 56.144531 51.667969 56.515625 51.835938 56.96875 52.726562 C 57.019531 52.90625 57.070312 53.089844 57.121094 53.28125 C 57.246094 53.179688 57.375 53.082031 57.507812 52.980469 C 57.675781 52.851562 57.84375 52.722656 58.019531 52.589844 C 58.1875 52.460938 58.355469 52.332031 58.527344 52.203125 C 59.605469 51.441406 60.339844 51.222656 61.679688 51.359375 C 62.570312 51.847656 63.035156 52.195312 63.601562 53.039062 C 63.785156 55.234375 63.570312 57.371094 63.121094 59.519531 C 63.617188 59.242188 63.617188 59.242188 64.078125 58.800781 C 64.210938 58.210938 64.210938 58.210938 64.199219 57.554688 C 64.320312 55.566406 65.054688 54.289062 66.496094 52.929688 C 68.164062 51.605469 69.90625 51.199219 72 51.359375 C 73.683594 51.660156 74.636719 52.628906 75.601562 54 C 75.945312 54.71875 75.945312 54.71875 76.078125 55.199219 C 76.171875 55.074219 76.261719 54.945312 76.351562 54.8125 C 77.53125 53.1875 78.734375 52.023438 80.714844 51.433594 C 80.929688 51.410156 81.140625 51.386719 81.359375 51.359375 C 81.515625 51.339844 81.671875 51.324219 81.832031 51.304688 C 83.40625 51.203125 84.640625 51.632812 85.921875 52.558594 C 86.652344 53.371094 87.082031 54.109375 87.195312 55.199219 C 87.171875 55.359375 87.144531 55.515625 87.121094 55.679688 C 87.277344 55.679688 87.4375 55.679688 87.601562 55.679688 C 87.644531 55.523438 87.6875 55.363281 87.734375 55.199219 C 88.441406 53.722656 89.578125 52.429688 91.089844 51.746094 C 92.378906 51.425781 93.722656 51.535156 95.039062 51.601562 C 95.011719 51.292969 94.980469 50.984375 94.949219 50.671875 C 94.925781 50.410156 94.925781 50.410156 94.898438 50.148438 C 94.832031 49.625 94.832031 49.625 94.320312 49.199219 C 94.289062 48.628906 94.289062 48.628906 94.558594 48 C 95.992188 47.015625 97.402344 46.734375 99.121094 46.800781 Z M 99.121094 46.800781 "/>
<path style=" stroke:none;fill-rule:nonzero;fill:rgb(99.215686%,98.823529%,98.823529%);fill-opacity:1;" d="M 16.316406 42.648438 C 16.503906 42.648438 16.691406 42.648438 16.882812 42.644531 C 17.496094 42.640625 18.113281 42.640625 18.726562 42.640625 C 19.15625 42.636719 19.585938 42.636719 20.011719 42.632812 C 20.910156 42.632812 21.808594 42.628906 22.707031 42.632812 C 23.855469 42.632812 25.003906 42.625 26.152344 42.617188 C 27.039062 42.609375 27.925781 42.609375 28.8125 42.609375 C 29.234375 42.609375 29.65625 42.609375 30.082031 42.605469 C 30.675781 42.597656 31.265625 42.601562 31.859375 42.601562 C 32.03125 42.601562 32.207031 42.597656 32.382812 42.59375 C 33.875 42.613281 35.09375 43.117188 36.238281 44.082031 C 36.34375 44.210938 36.445312 44.339844 36.554688 44.476562 C 36.664062 44.601562 36.769531 44.730469 36.882812 44.863281 C 37.964844 46.558594 38.011719 47.929688 37.964844 49.90625 C 37.941406 51.21875 37.941406 51.21875 37.921875 52.558594 C 35.070312 52.558594 32.21875 52.558594 29.28125 52.558594 C 29.042969 52.085938 29.042969 52.085938 28.800781 51.601562 C 28.351562 51.316406 28.351562 51.316406 27.839844 51.121094 C 27.679688 51.035156 27.523438 50.949219 27.359375 50.863281 C 25.964844 50.167969 24.824219 50.042969 23.28125 50.160156 C 23.117188 50.734375 23.117188 50.734375 23.039062 51.359375 C 23.589844 51.910156 23.796875 51.925781 24.539062 52.050781 C 26.132812 52.378906 27.164062 53.136719 28.078125 54.480469 C 28.621094 55.480469 28.777344 56.488281 28.558594 57.601562 C 28.054688 58.835938 27.414062 59.945312 26.234375 60.628906 C 25.03125 61.109375 23.828125 61.199219 22.558594 60.960938 C 21.433594 60.464844 20.632812 59.859375 19.933594 58.84375 C 19.667969 58.039062 19.488281 57.25 19.351562 56.414062 C 19.175781 55.835938 18.929688 55.585938 18.480469 55.199219 C 19.140625 53.550781 19.140625 53.550781 19.679688 53.28125 C 20.078125 53.195312 20.480469 53.113281 20.878906 53.039062 C 21.042969 52.464844 21.042969 52.464844 21.121094 51.839844 C 20.960938 51.679688 20.804688 51.523438 20.640625 51.359375 C 20.027344 51.363281 20.027344 51.363281 19.441406 51.601562 C 19.28125 51.917969 19.125 52.234375 18.960938 52.558594 C 16.03125 52.558594 13.097656 52.558594 10.078125 52.558594 C 10.058594 51.648438 10.039062 50.738281 10.019531 49.800781 C 10.011719 49.515625 10.003906 49.234375 9.992188 48.941406 C 9.972656 47.050781 10.261719 45.785156 11.503906 44.34375 C 11.65625 44.210938 11.8125 44.082031 11.96875 43.949219 C 12.121094 43.816406 12.277344 43.683594 12.433594 43.546875 C 13.652344 42.742188 14.894531 42.648438 16.316406 42.648438 Z M 16.316406 42.648438 "/>
<path style=" stroke:none;fill-rule:nonzero;fill:rgb(27.843139%,30.19608%,33.725491%);fill-opacity:1;" d="M 18.351562 40.390625 C 18.804688 40.390625 19.253906 40.390625 19.707031 40.386719 C 20.652344 40.382812 21.59375 40.386719 22.539062 40.390625 C 23.742188 40.394531 24.945312 40.390625 26.148438 40.378906 C 27.078125 40.375 28.011719 40.375 28.945312 40.375 C 29.386719 40.378906 29.832031 40.375 30.273438 40.371094 C 33.15625 40.347656 35.53125 40.503906 37.789062 42.527344 C 39.894531 44.636719 40.203125 46.945312 40.21875 49.796875 C 40.21875 50.214844 40.21875 50.632812 40.214844 51.050781 C 40.21875 51.488281 40.21875 51.921875 40.21875 52.359375 C 40.222656 53.269531 40.222656 54.183594 40.21875 55.09375 C 40.214844 56.253906 40.21875 57.414062 40.226562 58.574219 C 40.234375 59.476562 40.234375 60.375 40.230469 61.277344 C 40.230469 61.703125 40.234375 62.132812 40.234375 62.558594 C 40.273438 67.84375 40.273438 67.84375 38.480469 69.796875 C 38.375 69.890625 38.269531 69.984375 38.160156 70.078125 C 38.375 70.089844 38.59375 70.097656 38.816406 70.105469 C 39.101562 70.121094 39.382812 70.140625 39.675781 70.15625 C 39.957031 70.167969 40.238281 70.183594 40.527344 70.195312 C 41.28125 70.320312 41.28125 70.320312 41.742188 70.652344 C 42 71.039062 42 71.039062 41.96875 71.65625 C 41.761719 72.238281 41.761719 72.238281 41.039062 72.71875 C 40.414062 72.78125 40.414062 72.78125 39.644531 72.78125 C 39.355469 72.78125 39.0625 72.785156 38.761719 72.785156 C 38.441406 72.785156 38.117188 72.78125 37.792969 72.78125 C 37.453125 72.78125 37.113281 72.785156 36.773438 72.785156 C 35.851562 72.785156 34.925781 72.785156 34.003906 72.785156 C 33.039062 72.785156 32.074219 72.785156 31.109375 72.785156 C 29.488281 72.785156 27.867188 72.785156 26.246094 72.78125 C 24.371094 72.78125 22.496094 72.78125 20.621094 72.785156 C 19.011719 72.785156 17.402344 72.785156 15.792969 72.785156 C 14.832031 72.785156 13.871094 72.785156 12.910156 72.785156 C 12.003906 72.785156 11.101562 72.785156 10.199219 72.78125 C 9.867188 72.78125 9.535156 72.78125 9.203125 72.785156 C 8.75 72.785156 8.296875 72.78125 7.84375 72.78125 C 7.464844 72.78125 7.464844 72.78125 7.078125 72.78125 C 6.480469 72.71875 6.480469 72.71875 6 72.238281 C 5.941406 71.640625 5.941406 71.640625 6 71.039062 C 6.683594 70.355469 7.394531 70.449219 8.308594 70.410156 C 8.480469 70.402344 8.648438 70.390625 8.824219 70.382812 C 9.242188 70.359375 9.660156 70.339844 10.078125 70.320312 C 9.902344 70.132812 9.722656 69.945312 9.539062 69.75 C 7.644531 67.40625 7.769531 64.796875 7.777344 61.9375 C 7.773438 61.496094 7.773438 61.054688 7.769531 60.613281 C 7.765625 59.6875 7.765625 58.765625 7.769531 57.84375 C 7.769531 56.667969 7.761719 55.492188 7.753906 54.316406 C 7.746094 53.40625 7.746094 52.496094 7.746094 51.582031 C 7.746094 51.152344 7.742188 50.71875 7.738281 50.285156 C 7.707031 47.25 8.019531 44.867188 10.125 42.496094 C 12.570312 40.332031 15.273438 40.378906 18.351562 40.390625 Z M 11.835938 44.085938 C 11.707031 44.191406 11.574219 44.292969 11.441406 44.402344 C 10.347656 45.703125 9.9375 47.050781 9.953125 48.742188 C 9.949219 48.925781 9.949219 49.109375 9.945312 49.300781 C 9.941406 49.902344 9.941406 50.5 9.945312 51.101562 C 9.941406 51.523438 9.941406 51.945312 9.941406 52.367188 C 9.9375 53.25 9.9375 54.132812 9.941406 55.015625 C 9.945312 56.140625 9.941406 57.265625 9.933594 58.390625 C 9.925781 59.261719 9.925781 60.132812 9.929688 61.003906 C 9.929688 61.417969 9.925781 61.835938 9.921875 62.25 C 9.90625 64.722656 9.917969 66.957031 11.714844 68.859375 C 13.03125 70.089844 14.265625 70.390625 16.046875 70.390625 C 16.234375 70.390625 16.417969 70.394531 16.609375 70.394531 C 17.226562 70.398438 17.839844 70.398438 18.453125 70.402344 C 18.882812 70.402344 19.3125 70.402344 19.742188 70.40625 C 20.640625 70.410156 21.539062 70.410156 22.4375 70.410156 C 23.585938 70.410156 24.734375 70.414062 25.878906 70.421875 C 26.765625 70.429688 27.652344 70.429688 28.539062 70.429688 C 28.960938 70.429688 29.386719 70.433594 29.808594 70.4375 C 33.253906 70.535156 33.253906 70.535156 36.199219 68.953125 C 37.542969 67.546875 38.027344 66.027344 38.019531 64.105469 C 38.023438 63.925781 38.023438 63.746094 38.027344 63.558594 C 38.03125 62.960938 38.03125 62.367188 38.03125 61.773438 C 38.035156 61.355469 38.035156 60.9375 38.039062 60.523438 C 38.042969 59.648438 38.042969 58.777344 38.039062 57.90625 C 38.039062 56.792969 38.046875 55.679688 38.054688 54.566406 C 38.0625 53.707031 38.0625 52.84375 38.0625 51.984375 C 38.0625 51.574219 38.066406 51.164062 38.070312 50.753906 C 38.09375 48.292969 38.074219 46.074219 36.285156 44.179688 C 34.96875 42.945312 33.730469 42.648438 31.945312 42.652344 C 31.757812 42.652344 31.570312 42.652344 31.378906 42.648438 C 30.761719 42.648438 30.144531 42.648438 29.53125 42.648438 C 29.097656 42.648438 28.667969 42.644531 28.238281 42.644531 C 27.339844 42.644531 26.4375 42.644531 25.535156 42.644531 C 24.382812 42.644531 23.230469 42.640625 22.078125 42.636719 C 21.191406 42.632812 20.304688 42.632812 19.414062 42.632812 C 18.992188 42.632812 18.566406 42.632812 18.140625 42.628906 C 17.546875 42.625 16.953125 42.628906 16.355469 42.628906 C 16.183594 42.628906 16.007812 42.628906 15.828125 42.625 C 14.292969 42.640625 13.019531 43.085938 11.835938 44.085938 Z M 11.835938 44.085938 "/>
<path style=" stroke:none;fill-rule:nonzero;fill:rgb(99.607843%,42.745098%,49.411765%);fill-opacity:1;" d="M 50.878906 51.601562 C 51.195312 52.214844 51.195312 52.214844 51.359375 52.800781 C 51.59375 52.605469 51.824219 52.414062 52.066406 52.214844 C 53.066406 51.503906 53.976562 51.285156 55.199219 51.359375 C 56.144531 51.667969 56.515625 51.835938 56.96875 52.726562 C 57.019531 52.90625 57.070312 53.089844 57.121094 53.28125 C 57.246094 53.179688 57.375 53.082031 57.507812 52.980469 C 57.761719 52.789062 57.761719 52.789062 58.019531 52.589844 C 58.1875 52.460938 58.355469 52.332031 58.527344 52.203125 C 59.605469 51.441406 60.339844 51.222656 61.679688 51.359375 C 62.570312 51.847656 63.035156 52.195312 63.601562 53.039062 C 63.785156 55.234375 63.570312 57.371094 63.121094 59.519531 C 63.617188 59.25 63.617188 59.25 64.078125 58.800781 C 64.246094 58.144531 64.246094 58.144531 64.261719 57.433594 C 64.28125 57.078125 64.28125 57.078125 64.300781 56.710938 C 64.308594 56.53125 64.3125 56.347656 64.320312 56.160156 C 64.398438 56.160156 64.476562 56.160156 64.558594 56.160156 C 64.613281 56.695312 64.664062 57.230469 64.710938 57.765625 C 64.738281 58.0625 64.765625 58.359375 64.792969 58.667969 C 64.800781 59.679688 64.671875 60.339844 63.976562 61.089844 C 63.046875 61.804688 62.515625 62.199219 61.351562 62.234375 C 61.164062 62.242188 60.980469 62.253906 60.789062 62.261719 C 60.007812 62.117188 59.746094 61.835938 59.28125 61.199219 C 58.871094 58.824219 59.492188 56.320312 60 54 C 58.976562 54.253906 58.976562 54.253906 58.191406 54.910156 C 57.390625 56.585938 56.976562 58.296875 56.589844 60.105469 C 56.398438 60.960938 56.398438 60.960938 56.160156 61.441406 C 55.121094 61.992188 53.964844 62.128906 52.800781 62.160156 C 52.558594 61.921875 52.558594 61.921875 52.523438 61.164062 C 52.558594 60.269531 52.695312 59.503906 52.90625 58.636719 C 53.257812 57.089844 53.4375 55.582031 53.519531 54 C 52.855469 54.210938 52.417969 54.359375 51.972656 54.910156 C 51.148438 56.585938 50.738281 58.289062 50.351562 60.105469 C 50.160156 60.960938 50.160156 60.960938 49.921875 61.441406 C 48.882812 61.992188 47.722656 62.128906 46.558594 62.160156 C 46.320312 61.921875 46.320312 61.921875 46.28125 61.082031 C 46.296875 59.96875 46.476562 58.902344 46.679688 57.808594 C 46.902344 56.605469 47.085938 55.472656 47.039062 54.238281 C 46.882812 54.160156 46.722656 54.082031 46.558594 54 C 46.558594 53.605469 46.558594 53.207031 46.558594 52.800781 C 46.945312 52.605469 47.328125 52.410156 47.714844 52.214844 C 47.929688 52.105469 48.144531 51.996094 48.363281 51.886719 C 49.304688 51.433594 49.878906 51.242188 50.878906 51.601562 Z M 50.878906 51.601562 "/>
<path style=" stroke:none;fill-rule:nonzero;fill:rgb(99.607843%,42.352942%,49.411765%);fill-opacity:1;" d="M 114.71875 51.601562 C 115.464844 52.71875 115.386719 53.648438 115.199219 54.960938 C 114.171875 58.847656 112.21875 63.320312 108.855469 65.695312 C 107.507812 66.449219 106.171875 66.816406 104.640625 66.480469 C 103.894531 66.066406 103.347656 65.574219 102.960938 64.800781 C 102.859375 63.894531 102.898438 63.464844 103.363281 62.671875 C 103.921875 62.160156 103.921875 62.160156 104.519531 62.011719 C 105.371094 62.222656 105.605469 62.640625 106.078125 63.359375 C 106.25 63.675781 106.414062 63.992188 106.558594 64.320312 C 107.351562 64.230469 107.351562 64.230469 108 63.839844 C 108.171875 62.125 107.863281 60.632812 107.339844 59.011719 C 107.28125 58.808594 107.21875 58.605469 107.15625 58.398438 C 106.753906 57.09375 106.222656 55.933594 105.601562 54.71875 C 105.601562 54.5625 105.601562 54.402344 105.601562 54.238281 C 105.125 54.082031 104.648438 53.921875 104.160156 53.761719 C 104.25 53.160156 104.332031 52.867188 104.777344 52.445312 C 105.996094 51.671875 106.796875 51.402344 108.238281 51.601562 C 108.878906 52.097656 109.113281 52.601562 109.371094 53.355469 C 109.476562 53.660156 109.476562 53.660156 109.585938 53.972656 C 109.65625 54.183594 109.726562 54.398438 109.800781 54.613281 C 109.871094 54.820312 109.941406 55.027344 110.015625 55.238281 C 110.5 56.65625 110.9375 58.082031 111.359375 59.519531 C 112.386719 57.195312 112.386719 57.195312 112.078125 54.71875 C 111.792969 53.851562 111.722656 53.226562 111.839844 52.320312 C 112.722656 51.25 113.421875 51.234375 114.71875 51.601562 Z M 114.71875 51.601562 "/>
<path style=" stroke:none;fill-rule:nonzero;fill:rgb(28.627452%,30.588236%,34.117648%);fill-opacity:1;" d="M 24.34375 49.828125 C 26.097656 49.847656 27.421875 50.578125 28.753906 51.675781 C 30.441406 53.746094 30.941406 55.394531 30.71875 58.078125 C 30.269531 59.800781 29.253906 61.351562 27.726562 62.28125 C 25.875 63.234375 24.070312 63.773438 21.992188 63.203125 C 20.039062 62.414062 18.546875 61.164062 17.6875 59.230469 C 17.386719 58.449219 17.242188 57.820312 17.234375 56.984375 C 17.230469 56.796875 17.226562 56.609375 17.226562 56.414062 C 17.28125 55.921875 17.28125 55.921875 17.761719 55.441406 C 18.359375 55.378906 18.359375 55.378906 18.960938 55.441406 C 19.542969 56.023438 19.59375 56.402344 19.785156 57.195312 C 20.15625 58.589844 20.429688 59.414062 21.601562 60.316406 C 22.90625 60.992188 24.351562 60.9375 25.753906 60.578125 C 26.960938 60.082031 27.554688 59.328125 28.117188 58.167969 C 28.566406 56.910156 28.464844 55.878906 27.914062 54.660156 C 27.21875 53.410156 26.304688 52.769531 24.960938 52.320312 C 24.667969 52.242188 24.375 52.160156 24.074219 52.078125 C 23.28125 51.839844 23.28125 51.839844 22.800781 51.359375 C 22.953125 50.101562 23.097656 49.878906 24.34375 49.828125 Z M 24.34375 49.828125 "/>
<path style=" stroke:none;fill-rule:nonzero;fill:rgb(98.039216%,96.470588%,96.470588%);fill-opacity:1;" d="M 81.976562 53.070312 C 82.558594 53.28125 82.558594 53.28125 83.039062 54 C 83.289062 56.128906 83.039062 58.253906 81.796875 60.03125 C 81.652344 60.179688 81.507812 60.328125 81.359375 60.480469 C 80.789062 60.421875 80.789062 60.421875 80.160156 60.238281 C 79.304688 59.019531 79.550781 57.332031 79.679688 55.921875 C 80.007812 54.757812 80.558594 53 81.976562 53.070312 Z M 81.976562 53.070312 "/>
<path style=" stroke:none;fill-rule:nonzero;fill:rgb(98.039216%,96.470588%,96.862745%);fill-opacity:1;" d="M 71.28125 53.28125 C 72.050781 54.597656 71.914062 56.082031 71.632812 57.542969 C 71.3125 58.714844 70.941406 59.589844 70.078125 60.480469 C 69.511719 60.40625 69.511719 60.40625 68.878906 60.238281 C 68.066406 59.019531 68.296875 57.585938 68.398438 56.160156 C 68.773438 54.3125 69.21875 53.144531 71.28125 53.28125 Z M 71.28125 53.28125 "/>
<path style=" stroke:none;fill-rule:nonzero;fill:rgb(98.039216%,96.470588%,96.470588%);fill-opacity:1;" d="M 93.390625 53.085938 C 93.730469 53.179688 93.730469 53.179688 94.078125 53.28125 C 94.761719 54.648438 94.269531 56.457031 93.839844 57.839844 C 93.4375 58.789062 93.265625 59.183594 92.398438 59.761719 C 91.753906 59.671875 91.753906 59.671875 91.199219 59.519531 C 90.683594 57.972656 90.671875 56.050781 91.394531 54.570312 C 92.277344 53.019531 92.277344 53.019531 93.390625 53.085938 Z M 93.390625 53.085938 "/>
<path style=" stroke:none;fill-rule:nonzero;fill:rgb(97.647059%,94.117647%,94.509804%);fill-opacity:1;" d="M 99.121094 48.238281 C 99.277344 48.320312 99.4375 48.398438 99.601562 48.480469 C 99.679688 48.71875 99.757812 48.957031 99.839844 49.199219 C 100.078125 49.359375 100.316406 49.515625 100.558594 49.679688 C 100.445312 52.839844 99.886719 55.929688 99.359375 59.039062 C 98.886719 59.199219 98.410156 59.355469 97.921875 59.519531 C 97.839844 59.441406 97.761719 59.363281 97.679688 59.28125 C 97.699219 56.910156 98.1875 54.523438 98.550781 52.183594 C 98.75 50.871094 98.933594 49.554688 99.121094 48.238281 Z M 99.121094 48.238281 "/>
<path style=" stroke:none;fill-rule:nonzero;fill:rgb(29.019609%,31.764707%,34.901962%);fill-opacity:1;" d="M 32.414062 46.859375 C 33.121094 47.039062 33.121094 47.039062 33.601562 47.519531 C 33.660156 48.359375 33.660156 48.359375 33.601562 49.199219 C 33.121094 49.679688 33.121094 49.679688 32.296875 49.753906 C 31.441406 49.679688 31.441406 49.679688 30.960938 49.425781 C 30.566406 48.664062 30.753906 48.082031 30.960938 47.28125 C 31.679688 46.800781 31.679688 46.800781 32.414062 46.859375 Z M 32.414062 46.859375 "/>
<path style=" stroke:none;fill-rule:nonzero;fill:rgb(30.19608%,32.549021%,36.078432%);fill-opacity:1;" d="M 19.679688 51.121094 C 20.472656 51.199219 20.789062 51.269531 21.359375 51.839844 C 21.28125 52.632812 21.210938 52.949219 20.640625 53.519531 C 19.847656 53.441406 19.53125 53.371094 18.960938 52.800781 C 19.039062 52.007812 19.109375 51.691406 19.679688 51.121094 Z M 19.679688 51.121094 "/>
<path style=" stroke:none;fill-rule:nonzero;fill:rgb(29.019609%,31.764707%,34.901962%);fill-opacity:1;" d="M 46.441406 70.261719 C 47.039062 70.320312 47.039062 70.320312 47.519531 70.800781 C 47.578125 71.398438 47.578125 71.398438 47.519531 72 C 47.039062 72.480469 47.039062 72.480469 46.441406 72.539062 C 45.839844 72.480469 45.839844 72.480469 45.359375 72 C 45.300781 71.398438 45.300781 71.398438 45.359375 70.800781 C 45.839844 70.320312 45.839844 70.320312 46.441406 70.261719 Z M 46.441406 70.261719 "/>
</g>
</svg>
